<?xml version="1.0" encoding="UTF-8"?>
<svg enable-background="new -0.258 -0.548 123.547 123.539" viewBox="-0.258 -0.548 123.547 123.539" xmlns="http://www.w3.org/2000/svg">
 <path d="m109.09 123.66c8.148 0 14.766-6.602 14.766-14.758v-94.015c0-8.156-6.617-14.766-14.766-14.766h-94.024c-8.148 0-14.766 6.609-14.766 14.766v94.016c0 8.156 6.617 14.758 14.766 14.758h94.024z" fill="#231f20"/>
 <path d="m15.062 2.629c-6.766 0-12.266 5.492-12.266 12.258v94.016c0 6.758 5.5 12.258 12.266 12.258h94.023c6.773 0 12.266-5.5 12.266-12.258v-94.016c0-6.766-5.492-12.258-12.266-12.258h-94.023z" fill="#fff"/>
 <path d="m71.484,77.402c2.227,0 4.008-1.797 4.008-4.016 0-2.211-1.781-4.023-4.008-4.023-2.219,0-4.023,1.812-4.023,4.023 0,2.219 1.805,4.016 4.023,4.016zm39.797,28.953c-23.805.352-48.68-4.203-67.727-19.492-.117-.109-.172-.258-.172-.43 0-.367.297-.648.641-.648l18.773.023c.898,0 1.656-.742 1.656-1.656 0-.688-.312-1.164-1.047-1.531l-16.967-8.101c-.32-.195-.539-.539-.539-.953 0-.297.125-.57.32-.781 0,0 20.68-18.273 65.062-17.875v51.444z" fill="#231f20"/>
 <path d="m102.211,15.238c-14.695.164-29.086,6.438-45.227,19.672l-1.93-.516c-2.562,0-4.648,2.078-4.648,4.633l.289,1.398-13.039,12.235-11.094,10.453c-1.039.953-2.383,1.43-3.797,1.367-1.398-.07-2.688-.68-3.625-1.711-.906-1.008-1.352-2.273-1.352-3.531 0-1.43.57-2.852 1.703-3.883l1.469-.828c.133.945.523,3.852.523,3.852l9.047-11.523-9.977,3.398c-2.633.906-3.711,2.234-3.758,2.289-3.656,3.305-3.938,9.102-.562,12.844 3.398,3.75 9.203,4.016 12.945.625l.102-.125 10.516-10.008c0,0 12.984-12.281 13.406-12.688 .625.172 1.852.477 1.852.477 2.555,0 4.625-2.078 4.625-4.641 0,0-.117-.68-.211-1.164 15.61-12.843 29.266-18.937 42.938-19.093 2.805-.031 5.055.344 8.742,1.125l.758.172v-3.657l-.492-.109c-3.805-.813-6.312-1.094-9.203-1.063z" fill="#231f20"/>
</svg>
